PathFileType	4	(X/Y/Z)	G:\TennisProject\Miami_Dimitrov_Sinner_masked_Sports2D\Miami_Dimitrov_Sinner_masked_Sports2D_m_person03.trc
DataRate	CameraRate	NumFrames	NumMarkers	Units	OrigDataRate	OrigDataStartFrame	OrigNumFrames
25	25	7	22	m	25	249	499
Frame#	Time	Hip			RHip			RKnee			RAnkle			RBigToe			RSmallToe			RHeel			LHip			LKnee			LAnkle			LBigToe			LSmallToe			LHeel			Neck			Head			Nose			RShoulder			RElbow			RWrist			LShoulder			LElbow			LWrist		
		X1	Y1	Z1	X2	Y2	Z2	X3	Y3	Z3	X4	Y4	Z4	X5	Y5	Z5	X6	Y6	Z6	X7	Y7	Z7	X8	Y8	Z8	X9	Y9	Z9	X10	Y10	Z10	X11	Y11	Z11	X12	Y12	Z12	X13	Y13	Z13	X14	Y14	Z14	X15	Y15	Z15	X16	Y16	Z16	X17	Y17	Z17	X18	Y18	Z18	X19	Y19	Z19	X20	Y20	Z20	X21	Y21	Z21	X22	Y22	Z22
249	9.96	9.563872297727219	2.05410076717986	0.0	9.463226230213822	2.0413167416594744	0.0	9.442663131353818	1.6830971076589891	0.0	9.44593019501744	1.3173407790256748	0.0	9.399931806968956	1.2280847123520735	0.0	9.363439718146175	1.2370105903434587	0.0	9.464173943631755	1.2570010098264872	0.0	9.658590932421335	2.040045548330217	0.0	9.70960360544158	1.6845000359296773	0.0	9.757851701991955	1.320143926658639	0.0	9.775862496700698	1.2354790509732378	0.0	9.817866865898008	1.2411079206069742	0.0	9.736808334642856	1.258248656810604	0.0	9.545111599994913	2.5684037611985486	0.0	9.531110114985228	2.7976373286629252	0.0	9.527304355429525	2.6716413669716985	0.0	9.377093877248816	2.4842142108242906	0.0	9.360906194211355	2.2818822373009056	0.0	9.49415579996669	2.185661833171112	0.0	9.721765165641225	2.494922316374147	0.0	9.763766875997728	2.2814634836758616	0.0	9.645264503363856	2.1777418588622632	0.0
250	10.0	9.562245262164694	2.0541245494549276	0.0	9.461852127523526	2.0427871794892316	0.0	9.443304051419611	1.6832992683573431	0.0	9.445427893320533	1.3184282369257054	0.0	9.398283864745189	1.224119838079133	0.0	9.36011432780104	1.2334332983928613	0.0	9.461650069023474	1.256526024993994	0.0	9.659037397498533	2.041487037955112	0.0	9.711205031587847	1.686348817680786	0.0	9.757729531497054	1.3200988120508201	0.0	9.773240122379507	1.2299721523204568	0.0	9.818285570179244	1.2353821166225918	0.0	9.730479181379765	1.2558176724083487	0.0	9.544854385924321	2.570936909643025	0.0	9.529087454630856	2.7998556302637123	0.0	9.525006895787133	2.6761630777170335	0.0	9.376481656058758	2.485110899343391	0.0	9.359860935291445	2.2835586566644808	0.0	9.493342595370574	2.1848439473823635	0.0	9.72328694002705	2.4939965562145185	0.0	9.765303212593965	2.281398164693572	0.0	9.651462246648176	2.17470058401766	0.0
251	10.040000000000001	9.559707667834148	2.054168853879254	0.0	9.459901540096824	2.0433913201972014	0.0	9.442769557655648	1.6820345238072656	0.0	9.444699824894927	1.3163186984935966	0.0	9.398439968489503	1.2245627647157924	0.0	9.361786777306701	1.2335370061639845	0.0	9.463815905731897	1.2559728654720297	0.0	9.65881728686155	2.0424057739949126	0.0	9.70976355367665	1.6870603067355678	0.0	9.75613431418802	1.319061975526152	0.0	9.77447664149748	1.2341619472196836	0.0	9.818028834137985	1.2410987857898805	0.0	9.734808152425709	1.2584341565607982	0.0	9.542192573420916	2.5713890336279173	0.0	9.526970804054134	2.7986402518669697	0.0	9.523123287589733	2.6751156171709995	0.0	9.375557152752254	2.4818133676547904	0.0	9.36170431662373	2.279671606315205	0.0	9.492079648987644	2.1794097087057365	0.0	9.722043963476303	2.4925655683099817	0.0	9.764209410516262	2.280291100004326	0.0	9.645427333897663	2.172795604379086	0.0
252	10.08	9.558858420587391	2.054723181471713	0.0	9.45970297651105	2.0437845741929825	0.0	9.44247086860599	1.6822280720043166	0.0	9.44474576706225	1.3156402855155558	0.0	9.399456700282611	1.22767138704884	0.0	9.364637990424427	1.236196707371268	0.0	9.465171082672535	1.2570391021019045	0.0	9.658278419408166	2.0429059228476567	0.0	9.707884486097553	1.6870107389960458	0.0	9.755845116759554	1.3193028195246113	0.0	9.77550569609814	1.2399523233129197	0.0	9.817350866541261	1.2470763343274245	0.0	9.739499369128055	1.2617091330193804	0.0	9.540721258737822	2.57072919563778	0.0	9.526309807740024	2.7967970092945773	0.0	9.522884387647043	2.6711704780836176	0.0	9.37570765707346	2.479721999433015	0.0	9.362637181232584	2.278993948874362	0.0	9.490350525076568	2.177914994748061	0.0	9.72070251762357	2.4931899016050005	0.0	9.76224827304625	2.2825266764898293	0.0	9.64081616956514	2.1740459246486803	0.0
253	10.120000000000001	9.55959183018842	2.055805894191894	0.0	9.459960973111766	2.0451375740070574	0.0	9.442921877472534	1.6856453406810923	0.0	9.444973590084377	1.3192481483735443	0.0	9.398959469783168	1.2277776174220285	0.0	9.362374971738282	1.236487712935161	0.0	9.461999310558513	1.259090537208476	0.0	9.658110056558291	2.043957932721366	0.0	9.708869017779712	1.6881891978778938	0.0	9.757277005577077	1.3220250591549907	0.0	9.771587397619752	1.2374428638759132	0.0	9.816383032065207	1.2418490147321424	0.0	9.733853900118234	1.259744234840454	0.0	9.542009748775811	2.571417769742625	0.0	9.527062036762754	2.79774220902292	0.0	9.523173774081775	2.6707500933296413	0.0	9.376053234336684	2.482601894245716	0.0	9.360006388442907	2.2849050255870798	0.0	9.48834220774482	2.1819813218284647	0.0	9.722747165268192	2.4955261753002174	0.0	9.763149043846735	2.2870113586817262	0.0	9.648245802236959	2.1748035831261228	0.0
254	10.16	9.559561599210511	2.0563993635160056	0.0	9.459148603422458	2.0459591164021917	0.0	9.44340037199468	1.6881783729528448	0.0	9.444343194413515	1.3215846243625922	0.0	9.39832892049099	1.2261296277147324	0.0	9.358784212807882	1.2354844628011887	0.0	9.45888330541296	1.2596545695731425	0.0	9.65780014077248	2.0449425275155177	0.0	9.70997367287047	1.6895816157331136	0.0	9.757856724735758	1.3234942922398865	0.0	9.768297796032405	1.2333427304218212	0.0	9.81579097274968	1.2360182799067638	0.0	9.729288215066045	1.2568887532315818	0.0	9.5435905284276	2.5721689406368164	0.0	9.52801680341084	2.799255497569403	0.0	9.522623422474904	2.6720393504782938	0.0	9.375172451945186	2.484796098748136	0.0	9.357178803467855	2.287205491305078	0.0	9.486918100742123	2.182789356035642	0.0	9.72438945848308	2.4953924531209695	0.0	9.765434930783153	2.287382716336715	0.0	9.654076571338988	2.173398881007864	0.0
255	10.200000000000001	9.558556805220181	2.0558833688349956	0.0	9.458636559361699	2.045244338392718	0.0	9.443449217550107	1.6864820038203137	0.0	9.443447200490304	1.3187190677897593	0.0	9.399659218789104	1.2269481892242287	0.0	9.360658515736082	1.2370522612241663	0.0	9.460556998790262	1.258368504068439	0.0	9.657387928014725	2.0450700953616607	0.0	9.708589838937105	1.6889278667527778	0.0	9.757021117554183	1.3215046240907877	0.0	9.771510715432845	1.23658693718154	0.0	9.816217795587045	1.2409693121017658	0.0	9.73590781014156	1.2593409483437412	0.0	9.54320708346213	2.5713587781543903	0.0	9.528197417791858	2.7985100505554534	0.0	9.522015380793189	2.6712719656926565	0.0	9.374465442544698	2.48192642589816	0.0	9.35823752810712	2.2813499290058843	0.0	9.487346656578108	2.1783446098967616	0.0	9.721996727069484	2.492978300737924	0.0	9.765295725908091	2.2831838930050714	0.0	9.64738493310042	2.1719831328050647	0.0
